<?xml version="1.0" encoding="utf-8"?>
<!-- Generator: Adobe Illustrator 21.1.0, SVG Export Plug-In . SVG Version: 6.00 Build 0)  -->
<svg version="1.1" id="Calque_1" xmlns="http://www.w3.org/2000/svg" xmlns:xlink="http://www.w3.org/1999/xlink" x="0px" y="0px"
	 viewBox="0 0 32 32" style="enable-background:new 0 0 32 32;" xml:space="preserve">
<style type="text/css">
	.st0{fill:none;stroke:#7843E6;stroke-width:3;stroke-miterlimit:10;}
</style>
<path class="st0" d="M17.9,29.9c-4.5,0-8.9,0-13.4-0.1V2.2c5-0.1,10-0.1,15-0.2c0.4,0,2.8,0.1,4.4,1.9c1.7,1.9,1.6,4.8,0.5,6.5
	c-0.9,1.4-2.2,1.6-2.1,2.5c0,1.1,1.9,1.3,3.3,2.6c2.2,2,3.2,6.3,1.3,9.9C25.2,28.6,21.6,30.4,17.9,29.9z"/>
<g id="Calque_2">
	<path class="st0" d="M4.3,2.3C13.3,1.1,21,8.2,21,16.1c0,7.8-7.6,14.9-16.6,13.7"/>
</g>
</svg>
