<?xml version="1.0" encoding="utf-8"?>
<!-- Generator: Adobe Illustrator 26.0.1, SVG Export Plug-In . SVG Version: 6.00 Build 0)  -->
<svg version="1.1" id="Calque_1" xmlns="http://www.w3.org/2000/svg" xmlns:xlink="http://www.w3.org/1999/xlink" x="0px" y="0px"
	 viewBox="0 0 884.4 726.5" style="enable-background:new 0 0 884.4 726.5;" xml:space="preserve">
<style type="text/css">
	.st0{fill:#EEAB27;}
	.st1{fill:#E6E6E6;}
	.st2{fill:#FFFFFF;}
	.st3{fill:#9E616A;}
	.st4{fill:#EEAB25;}
	.st5{fill:#2F2E41;}
	.st6{fill:#EEAB26;}
	.st7{fill:#FFB6B6;}
	.st8{opacity:0.2;enable-background:new    ;}
	.st9{fill:#EEAB24;}
	.st10{fill:#CCCCCC;}
</style>
<circle class="st0" cx="203.4" cy="54" r="54"/>
<path class="st1" d="M738.9,503.5h-68v-55.8l24.2-0.1c7.7,0,14.5-5,17-12.3l17-51.1c3.1-9.4-2-19.6-11.4-22.8
	c-1.8-0.6-3.8-0.9-5.7-0.9h-41.2v-24h51.7c8.4,0,15.7-5.8,17.5-14l11.7-51c2.2-9.7-3.8-19.3-13.5-21.6c-1.3-0.3-2.7-0.5-4-0.5h-63.4
	v-6c0-6.6-5.4-12-12-12s-12,5.4-12,12v6h-425v-6c0-6.6-5.4-12-12-12s-12,5.4-12,12v6h-50.4c-9.9,0-18,8.1-18,18c0,1.4,0.2,2.7,0.5,4
	l11.7,51c1.9,8.2,9.2,14,17.5,14h38.7v24h-28.2c-9.9,0-18,8.1-18,18c0,1.9,0.3,3.7,0.9,5.5l17.4,53.9c2.4,7.5,9.4,12.5,17.2,12.5
	l10.7-0.1v53.1h-55c-9.9,0-18,8.1-18,18v0v0c0,9.9,8.1,18,18,18h55v132c0,6.6,5.4,12,12,12s12-5.4,12-12v-132h425v132
	c0,6.6,5.4,12,12,12s12-5.4,12-12v-132h68c9.9,0,18-8.1,18-18v0C756.9,511.6,748.8,503.5,738.9,503.5L738.9,503.5z M221.9,336.5h425
	v24h-425V336.5z M221.9,503.5v-53.3l425-2.4v55.7H221.9z"/>
<path class="st1" d="M689.2,556.8c5.3-42.2,31.4-83.9,71.7-97.6c-15.9,43.5-15.9,91.2,0,134.7c6.2,16.7,14.8,34.7,9,51.6
	c-3.6,10.5-12.5,18.5-22.4,23.6c-9.9,5-20.9,7.4-31.8,9.8l-2.1,1.8C696.4,641.6,683.9,599,689.2,556.8z"/>
<path class="st2" d="M761.3,460c-23.5,26.3-38,59.3-41.7,94.3c-0.7,7.5-0.8,15.2,0.8,22.6c1.7,7.2,5.2,13.8,10.3,19.2
	c4.6,5.1,10,9.8,13.3,15.9c3.5,6.5,3.6,13.8,1.2,20.7c-2.9,8.4-8.7,15.3-14.6,21.8c-6.5,7.2-13.4,14.6-16.2,24.2
	c-0.3,1.2-2.1,0.6-1.8-0.6c4.8-16.7,21-26.1,28.7-41.1c3.6-7,5.1-15.1,1.7-22.5c-3-6.5-8.5-11.3-13.2-16.4
	c-5-5.4-8.8-11.3-10.8-18.4c-2-7.3-2.2-15-1.7-22.5c1.3-17,5.4-33.7,11.9-49.4c7.3-18,17.7-34.6,30.7-49.2
	C760.9,457.7,762.1,459.1,761.3,460L761.3,460z"/>
<path class="st2" d="M720.1,543c-12-2.9-20.1-14.1-19.1-26.3c0.1-1.2,2-1.1,1.9,0.1c-0.9,11.4,6.7,21.8,17.9,24.5
	C721.9,541.5,721.3,543.2,720.1,543L720.1,543z"/>
<path class="st2" d="M728.1,593.9c10.5-6.3,18.2-16.2,21.6-27.9c0.3-1.2,2.1-0.6,1.8,0.6c-3.6,12.2-11.7,22.5-22.6,29
	C727.9,596.1,727,594.5,728.1,593.9z"/>
<path class="st2" d="M738.5,491.5c4.3,2.1,9.4,1.8,13.5-0.7c1-0.6,1.9,1,0.8,1.7c-4.5,2.7-10.1,3-14.9,0.8c-0.5-0.2-0.7-0.7-0.6-1.2
	C737.5,491.6,738,491.3,738.5,491.5z"/>
<path class="st1" d="M883.7,534.6c-0.6,0.4-1.3,0.8-1.9,1.3c-8.5,5.6-16.5,11.8-24,18.7c-0.6,0.5-1.2,1.1-1.7,1.6
	c-17.8,16.8-32.4,36.7-42.9,58.8c-4.2,8.8-7.7,17.9-10.5,27.2c-3.9,12.9-7.1,27.1-14.7,37.7c-0.8,1.1-1.6,2.2-2.6,3.2h-69.4
	c-0.2-0.1-0.3-0.1-0.5-0.2l-2.8,0.1c0.1-0.5,0.2-1,0.3-1.5c0.1-0.3,0.1-0.6,0.2-0.9c0-0.2,0.1-0.4,0.1-0.6c0-0.1,0-0.1,0-0.2
	c0-0.2,0.1-0.3,0.1-0.5c0.7-2.8,1.4-5.7,2.2-8.5c0,0,0,0,0,0c5.7-21.6,13.2-42.9,23.8-62.4c0.3-0.6,0.6-1.2,1-1.8
	c4.8-8.8,10.3-17.1,16.5-25c3.4-4.3,7-8.4,10.8-12.3c9.8-10.1,21.2-18.6,33.7-25.2c24.9-13.1,53.7-18.2,80.3-10.2
	C882.4,534.2,883,534.4,883.7,534.6z"/>
<path class="st2" d="M883.6,535.5c-34.6,6.9-66.1,24.4-90.1,50.2c-5.1,5.6-9.8,11.6-13,18.5c-3,6.8-4.2,14.2-3.3,21.5
	c0.6,6.9,2.1,13.8,1,20.7c-1.1,7.3-5.4,13.2-11.5,17.3c-7.4,4.9-16.1,6.9-24.8,8.6c-9.6,1.8-19.5,3.6-27.5,9.6c-1,0.7-2-0.8-1.1-1.5
	c13.9-10.4,32.5-8.2,47.7-15.6c7.1-3.4,13.2-9,14.9-16.9c1.5-6.9,0.1-14.1-0.7-21.1c-0.7-7.3-0.2-14.3,2.5-21.2
	c2.8-7,7.2-13.3,12.2-19c11.3-12.8,24.5-23.7,39.2-32.3c16.7-10,35-17,54.1-20.8C884.6,533.4,884.7,535.3,883.6,535.5L883.6,535.5z"
	/>
<path class="st2" d="M800.7,577c-7.8-9.5-7.6-23.3,0.6-32.6c0.8-0.9,2.2,0.3,1.4,1.2c-7.6,8.6-7.8,21.5-0.5,30.3
	C803,576.9,801.5,577.9,800.7,577L800.7,577z"/>
<path class="st2" d="M776.4,622.4c12.1,1.3,24.3-2,34.1-9.3c1-0.7,2,0.8,1.1,1.5c-10.2,7.5-22.9,11-35.5,9.6
	C774.9,624.1,775.2,622.3,776.4,622.4z"/>
<path class="st2" d="M846.3,546.9c2.2,4.2,6.4,7.1,11.2,7.6c1.2,0.1,0.9,2-0.3,1.8c-5.3-0.6-9.9-3.7-12.4-8.4
	c-0.3-0.4-0.2-1,0.2-1.3C845.5,546.4,846,546.5,846.3,546.9z"/>
<path class="st1" d="M23.2,556.8c5.3-42.2,31.4-83.9,71.7-97.6c-15.9,43.5-15.9,91.2,0,134.7c6.2,16.7,14.8,34.7,9,51.6
	c-3.6,10.5-12.5,18.5-22.4,23.6c-9.9,5-20.9,7.4-31.8,9.8l-2.1,1.8C30.4,641.6,17.9,599,23.2,556.8z"/>
<path class="st2" d="M95.3,460c-23.5,26.3-38,59.3-41.7,94.3c-0.7,7.5-0.8,15.2,0.8,22.6c1.7,7.2,5.2,13.8,10.3,19.2
	c4.6,5.1,10,9.8,13.3,15.9c3.5,6.5,3.6,13.8,1.2,20.7c-2.9,8.4-8.7,15.3-14.6,21.8c-6.5,7.2-13.4,14.6-16.2,24.2
	c-0.3,1.2-2.1,0.6-1.8-0.6c4.8-16.7,21-26.1,28.7-41.1c3.6-7,5.1-15.1,1.7-22.5c-3-6.5-8.5-11.3-13.2-16.4
	c-5-5.4-8.8-11.3-10.8-18.4c-2-7.3-2.2-15-1.7-22.5c1.3-17,5.4-33.7,11.9-49.4c7.3-18,17.7-34.6,30.7-49.2
	C94.9,457.7,96.1,459.1,95.3,460L95.3,460z"/>
<path class="st2" d="M54.1,543c-12-2.9-20.1-14.1-19.1-26.3c0.1-1.2,2-1.1,1.9,0.1c-0.9,11.4,6.7,21.8,17.9,24.5
	C55.9,541.5,55.3,543.2,54.1,543L54.1,543z"/>
<path class="st2" d="M62.1,593.9c10.5-6.3,18.2-16.2,21.6-27.9c0.3-1.2,2.1-0.6,1.8,0.6c-3.6,12.2-11.7,22.5-22.6,29
	C61.9,596.1,61,594.5,62.1,593.9L62.1,593.9z"/>
<path class="st2" d="M72.5,491.5c4.3,2.1,9.4,1.8,13.5-0.7c1-0.6,1.9,1,0.8,1.7c-4.5,2.7-10.1,3-14.9,0.8c-0.5-0.2-0.7-0.7-0.6-1.2
	C71.5,491.6,72,491.3,72.5,491.5L72.5,491.5z"/>
<path class="st1" d="M217.7,534.6c-0.6,0.4-1.3,0.8-1.9,1.3c-8.5,5.6-16.5,11.8-24,18.7c-0.6,0.5-1.2,1.1-1.7,1.6
	c-17.8,16.8-32.4,36.7-42.9,58.8c-4.2,8.8-7.7,17.9-10.5,27.2c-3.9,12.9-7.1,27.1-14.7,37.7c-0.8,1.1-1.6,2.2-2.6,3.2H49.9
	c-0.2-0.1-0.3-0.1-0.5-0.2l-2.8,0.1c0.1-0.5,0.2-1,0.3-1.5c0.1-0.3,0.1-0.6,0.2-0.9c0-0.2,0.1-0.4,0.1-0.6c0-0.1,0-0.1,0-0.2
	c0-0.2,0.1-0.3,0.1-0.5c0.7-2.8,1.4-5.7,2.2-8.5c0,0,0,0,0,0c5.7-21.6,13.2-42.9,23.8-62.4c0.3-0.6,0.6-1.2,1-1.8
	c4.8-8.8,10.3-17.1,16.5-25c3.4-4.3,7-8.4,10.8-12.3c9.8-10.1,21.2-18.6,33.7-25.2c24.9-13.1,53.7-18.2,80.3-10.2
	C216.4,534.2,217,534.4,217.7,534.6z"/>
<path class="st2" d="M217.6,535.5c-34.6,6.9-66.1,24.4-90.1,50.2c-5.1,5.6-9.8,11.6-13,18.5c-3,6.8-4.2,14.2-3.3,21.5
	c0.6,6.9,2.1,13.8,1,20.7c-1.1,7.3-5.4,13.2-11.5,17.3c-7.4,4.9-16.1,6.9-24.8,8.6c-9.6,1.8-19.5,3.6-27.5,9.6c-1,0.7-2-0.8-1.1-1.5
	c13.9-10.4,32.5-8.2,47.7-15.6c7.1-3.4,13.2-9,14.9-16.9c1.5-6.9,0.1-14.1-0.7-21.1c-0.7-7.3-0.2-14.3,2.5-21.2
	c2.8-7,7.2-13.3,12.2-19c11.3-12.8,24.5-23.7,39.2-32.3c16.7-10,35-17,54.1-20.8C218.6,533.4,218.7,535.3,217.6,535.5L217.6,535.5z"
	/>
<path class="st2" d="M134.7,577c-7.8-9.5-7.6-23.3,0.6-32.6c0.8-0.9,2.2,0.3,1.4,1.2c-7.6,8.6-7.8,21.5-0.5,30.3
	C137,576.9,135.5,577.9,134.7,577L134.7,577z"/>
<path class="st2" d="M110.4,622.4c12.1,1.3,24.3-2,34.1-9.3c1-0.7,2,0.8,1.1,1.5c-10.2,7.5-22.9,11-35.5,9.6
	C108.9,624.1,109.2,622.3,110.4,622.4z"/>
<path class="st2" d="M180.3,546.9c2.2,4.2,6.4,7.1,11.2,7.6c1.2,0.1,0.9,2-0.3,1.8c-5.3-0.6-9.9-3.7-12.4-8.4
	c-0.3-0.4-0.2-1,0.2-1.3C179.5,546.4,180,546.5,180.3,546.9L180.3,546.9z"/>
<path class="st1" d="M300.8,78.1c-4.4-3.1-9.2-6.3-14.5-6.2c-13,0.3-20,19.3-32.9,18.7c-8.3-0.4-13.8-8.8-21.5-11.9
	c-10-4-22.8,3.8-23.9,14.5l1.3-1.2c39,9.5,79.4,11.4,119.1,5.5C319.2,91,310,84.6,300.8,78.1z"/>
<path class="st1" d="M487.6,127.4c-3.1-2.2-6.6-4.5-10.4-4.4c-9.3,0.2-14.3,13.9-23.6,13.4c-5.9-0.3-9.9-6.3-15.4-8.5
	c-7.2-2.8-16.3,2.7-17.1,10.4l0.9-0.8c28,6.8,57,8.2,85.4,3.9C500.8,136.7,494.2,132.1,487.6,127.4z"/>
<path class="st1" d="M629.3,59c-2.1-1.5-4.4-3-6.9-3c-6.2,0.1-9.5,9.2-15.7,8.9c-3.9-0.2-6.6-4.2-10.2-5.7
	c-4.8-1.9-10.9,1.8-11.4,6.9l0.6-0.6c18.6,4.5,37.8,5.4,56.8,2.6C638,65.2,633.6,62.1,629.3,59z"/>
<path class="st3" d="M489.8,438.8c6.9-1.3,11.5-8,10.3-15c-0.1-0.7-0.3-1.4-0.5-2.1l74-70.8l-22-7.4L482.8,414
	c-5.4,2.5-8.4,8.3-7.4,14.1c1,6.9,7.4,11.7,14.3,10.7C489.7,438.8,489.8,438.8,489.8,438.8z"/>
<path class="st4" d="M622.7,275.6c0,0,15.6,3.5,13.6,22.3c-2,18.8-44.8,57.8-51.5,64.3s-51.9,27.8-51.9,27.8l-17.3-19L622.7,275.6z"
	/>
<polygon class="st3" points="464.8,628.5 448.9,624.4 455.4,552.8 478.9,558.9 "/>
<path class="st5" d="M452.4,593.7c-0.1-0.1-6-14.2-2.1-27.3c0.3-1.3,0.5-2.6,0.7-3.9c0.1-1.5,0.4-3.1,0.8-4.6c0.4-1.3,1-2.6,1.7-3.9
	c0.7-1.3,1.3-2.6,1.7-4c9.3-31.2,22.3-73.5,31.3-98.3c10.1-27.8,119.8-20.2,126.2-19.7l19.4-13.8l7.3,49l-69.1,21.9l-0.1,0
	l-56.3-0.1l-2,6c1.4,2.6,1.9,5.6,1.2,8.4c-0.6,2.8-2.4,5.3-5,6.7l-1.5,0.8l-18.8,56.4c0,5.7-1.8,11.2-5.1,15.8l-0.4,0.6l-7.2,16
	l-22.7-5.9L452.4,593.7z"/>
<path class="st5" d="M464.7,649.5l-59.3-15.4l0.2-0.8c1.2-6.7,5-12.7,10.5-16.7c5.1-3.8,11.7-5,17.9-3.4l0,0l12.7-6.5l18.3,14.6
	l5.2,1.3L464.7,649.5z"/>
<polygon class="st3" points="508.4,663 492,663 484.3,591.6 508.4,591.6 "/>
<ellipse class="st3" cx="601" cy="215.2" rx="32.6" ry="36.9"/>
<path class="st5" d="M486.6,640.8c-0.1-0.1-8.2-12-7.7-26c0.1-1.5,0.9-2.8,1.9-4.3c0.9-1.4,1.8-2.9,1.9-4.3
	c0.4-8.8,0.8-17.5,1.2-25.7c0.3-5.3-1.1-11-2.5-16.5c-1.4-5.8-2.9-11.9-2.5-17.8c2.3-33.2,12.7-64.3,17.3-69.6
	c10.3-11.6,73.1-45.4,75.7-46.8l0.1-0.1l80.4,10.2l0.3,0l0.1,0.3c0.1,0.3,5.1,31.3-6.6,50.5c-4.4,7.5-11.9,12.8-20.4,14.4
	c-34.4,6.9-83.9,11.9-88.3,12.4l-16.8,88.6c2.7,5.2,1.9,11.6-1.9,16l-1.4,1.5l-1.6,8.4l-5.9,9h-23.1L486.6,640.8z"/>
<path class="st6" d="M564.1,434.7l15.1-25.7l-7.8-45.6l1.4-64.7l2.8-9.6c2.7-9.1,8.6-16.6,16.3-20.6l18.8-9.7
	c2.3-1.2,5.1-1.3,7.4-0.1c2.4,1.2,4.2,3.3,5,5.9c4.1,0.6,30.6,5.8,36.3,34c2.1,10.5,3.3,31.3,3.6,61.8c0.2,22-1,44-3.6,65.9
	c-0.2,1.6-1.5,3.1-2.9,4.6c-1.2,1.3-2.4,2.7-2.6,4c-0.2,1.2,0.6,2.5,1.5,3.9c0.9,1.5,1.9,3,1.6,4.7c-0.6,3.7-0.9,7.4-1.2,11
	c-0.3,5-1,9.9-1.9,14.8c-1.2,5.1-2.6,10.1-4.3,15c-1.2,3.5-2.3,7.2-3.3,10.8l-0.1,0.3l-0.3,0c0,0,0,0,0,0
	C645.7,495.2,644.8,484.9,564.1,434.7z"/>
<path class="st5" d="M517.2,683.5l-60.8,0v-0.9c-0.1-7,2.4-13.7,6.9-19c4.2-4.9,10.3-7.8,16.7-7.9h0l11.1-9.5l20.7,9.6l5.3,0
	L517.2,683.5z"/>
<path class="st7" d="M292,383.4l1.8,19.8c0,0,0.8,16.4,3.2,20.1c2.4,3.6,68.2,4.1,68.2,4.1s4.3-23.4,8.1-43.9H292z"/>
<polygon class="st7" points="485.5,635 499.3,632.2 495.3,576.7 475,580.8 "/>
<polygon class="st7" points="437.3,643.1 451.3,643.1 458,587.9 437.3,587.9 "/>
<path class="st5" d="M459.8,620.4l-27.5,2.6l-15-111.3c-49.5,8.5-96.2,11.2-136.6,0.9c-13.7-3.4-22-17.6-18.7-31.5
	c0.2-0.7,0.3-1.3,0.5-1.9c4.8-14.7,24.4-28.9,34.4-45.1l55.2,22.7l2.5,10.2l70.7-9.2c14.2-1.8,27.2,8.5,29,23
	c0.1,0.8,0.2,1.5,0.2,2.3L459.8,620.4z"/>
<path class="st5" d="M501.6,596.9l-27.5,2.6l-49.9-102.1c-49.5,8.5-96.2,11.2-136.6,0.9c-13.7-3.4-22-17.6-18.7-31.5
	c0.2-0.7,0.3-1.3,0.5-1.9c4.8-14.7,17.5-25.2,27.5-41.4l72.8,1.1l-8.1,28.1l70.7-9.2c14.2-1.8,27.2,8.5,29,23
	c0.1,0.8,0.2,1.5,0.2,2.3L501.6,596.9z"/>
<circle class="st7" cx="324.9" cy="226.3" r="33.8"/>
<path class="st0" d="M307.6,266.6l27.1,3.2c2.3,0.3,4.3,2,4.8,4.3l4.3,19.7l26.9,31.7c0,0,9.7,18.1,6,38.6s-5.2,35.7-5.2,35.7
	s-72.1,27-74.5,23.4s-3.2-20.1-3.2-20.1l-9.7-107.4c0,0,10.9-18.1,16.9-18.1C304.9,277.6,304.4,268.8,307.6,266.6z"/>
<polygon class="st8" points="305.8,336.9 366.5,403.5 377.3,396.9 "/>
<ellipse class="st9" cx="372.2" cy="398.1" rx="6.9" ry="8.3"/>
<path class="st7" d="M469.9,463.1c-7.6-0.9-13-7.9-12-15.4c0.1-0.8,0.3-1.6,0.5-2.4l-84.8-72.6l24-8.8l79.2,72.5
	c7.2,2.8,10.8,10.8,8,18C482.4,460.3,476.2,464,469.9,463.1z"/>
<path class="st4" d="M316.2,294c0,0-17.2,4.4-14.1,24.4c3,20,52,60,59.7,66.7s58.5,27.5,58.5,27.5l18.3-21.1L316.2,294z"/>
<path class="st7" d="M485.4,436.2c-7.6,0.2-14-5.9-14.1-13.6c0-0.8,0-1.6,0.2-2.4l-94.4-59.7l22.5-12.2l88.7,60.4
	c7.5,1.7,12.2,9.2,10.5,16.7C497.4,431.7,491.9,436.2,485.4,436.2L485.4,436.2z"/>
<path class="st6" d="M309.1,290.9c0,0-16.3,6.8-10.5,26.2c5.9,19.4,60,51.9,68.6,57.4c8.6,5.5,61.8,18.9,61.8,18.9l15.1-23.5
	L309.1,290.9z"/>
<path class="st5" d="M340.3,194c-11.7-8.1-22-9.3-30.5-7c-1.1-1.7-2.6-3.1-4.5-4c-6.6-16.7-26.7-26.6-44-21.8
	c-17.4,4.9-29.4,24.1-26.1,41.9c2,11,8.9,20.5,11.7,31.4c5.4,21-7.8,45-28.3,51.8c19.5,3.9,40.9-8,47.9-26.6c3.4-9,3.6-18.9,4-28.5
	c0.4-9.6,1.2-19.6,5.6-28.2c2.9-5.9,7.8-10.6,13.8-13.4c-1.1,3.4-0.5,7,1.6,9.9c-4.6,5.7-7.1,11.9-7.1,15.6
	c-9.5,17.3,4.1,32.2,21.4,41.7c6.9,3.8,14.9,5.2,22.7,4l0.7-3.1l1,2.8c0,0,11.3,37.3,15,39.5c-1.4-6.6-3-37.4-3.8-43.8
	c-1.1-8.8,2.7-21.9,5.4-29.9c1.7-4.9,2.6-10.1,2.6-15.3v-0.2l2.7,8.6l9.7-4.1C360.1,204.8,361.9,193,340.3,194z"/>
<path class="st3" d="M482.4,460.4c7.5-1.2,12.7-8.3,11.5-15.9c-0.1-0.8-0.3-1.6-0.6-2.4l82.2-75.6l-24.3-8l-76.5,75.3
	c-7.1,3-10.4,11.2-7.4,18.3C469.9,458,476.1,461.4,482.4,460.4L482.4,460.4z"/>
<path class="st0" d="M630,285.9c0,0,17.3,3.8,15,23.9s-49.8,61.8-57.3,68.7s-57.5,29.6-57.5,29.6l-19-20.4L630,285.9z"/>
<path class="st5" d="M478.7,620.7l21-10.5l3.9,9.2l26.5,5.4c3.4,0.7,5.6,4,4.9,7.4c-0.4,2-1.8,3.7-3.7,4.5l-25.6,11l-8.3-7.2
	l2.2,9.9l-9.7,4.1L478.7,620.7z"/>
<path class="st5" d="M433.7,636.6l23.4-1.4v10l22.2,15.4c2.8,2,3.6,5.9,1.6,8.7c-1.2,1.7-3.1,2.7-5.2,2.7h-27.9l-4.8-9.9l-1.9,9.9
	h-10.5L433.7,636.6z"/>
<path class="st5" d="M645.7,195.2c-4.3-5.5-12.9-7.9-18.5-3.6c4.3-2.8,5.7-8.9,3.9-13.7c-1.8-4.8-6.2-8.3-11-10.1
	c-4.8-1.8-10-2-15.2-2c-6.7,0-13.6,0.6-19.7,3.3c-6.1,2.8-11.3,8.2-12.3,14.8c-6.8-2.5-14.4,0.9-16.9,7.7s0.9,14.4,7.7,16.9
	c2.3,0.9,4.9,1.1,7.4,0.5c3.4-0.7,6.4-2.8,9.6-4c3.2-1.3,7.3-1.6,9.9,0.8c3.5,3.2,2.9,10.1,7.4,11.7c2.5,0.9,5.2-0.5,7.8-0.1
	c3.1,0.5,5.2,3.5,5.7,6.6s-0.3,6.2-1,9.2c-1.7,6.7-3.4,13.4-5.2,20.1l2-0.5c21.1-1.2,38.6-16.8,42.2-37.6
	C650.5,208.3,649.9,200.8,645.7,195.2z"/>
<path class="st10" d="M860.5,684.5H1.2c-0.7,0-1.2-0.5-1.2-1.2s0.5-1.2,1.2-1.2c0,0,0,0,0,0h859.3c0.7,0,1.2,0.5,1.2,1.2
	S861.2,684.5,860.5,684.5C860.5,684.5,860.5,684.5,860.5,684.5z"/>
<path class="st1" d="M250.5,651.3c3.1-24.7,18.4-49,41.9-57c-9.3,25.4-9.3,53.3,0,78.7c3.6,9.8,8.7,20.3,5.3,30.1
	c-2.1,6.1-7.3,10.8-13.1,13.8c-5.8,2.9-12.2,4.3-18.6,5.7l-1.2,1C254.7,700.8,247.4,675.9,250.5,651.3z"/>
<path class="st2" d="M292.6,594.7c-13.7,15.4-22.2,34.6-24.3,55.1c-0.5,4.4-0.4,8.9,0.5,13.2c1,4.2,3,8.1,6,11.2
	c2.7,3,5.8,5.7,7.8,9.3c2,3.7,2.2,8.1,0.7,12.1c-1.7,4.9-5.1,8.9-8.5,12.7c-3.8,4.2-7.8,8.5-9.5,14.1c-0.2,0.7-1.2,0.3-1-0.3
	c2.8-9.7,12.3-15.3,16.8-24c2.1-4.1,3-8.8,1-13.2c-1.7-3.8-4.9-6.6-7.7-9.6c-2.9-3-5.1-6.7-6.3-10.8c-1.1-4.3-1.4-8.7-1-13.1
	c0.8-9.9,3.1-19.7,6.9-28.9c4.3-10.5,10.4-20.2,17.9-28.7C292.4,593.4,293.1,594.2,292.6,594.7L292.6,594.7z"/>
<path class="st2" d="M268.6,643.2c-7-1.7-11.7-8.2-11.2-15.4c0.1-0.7,1.2-0.6,1.1,0.1c-0.5,6.7,3.9,12.8,10.4,14.3
	C269.6,642.3,269.3,643.4,268.6,643.2L268.6,643.2z"/>
<path class="st2" d="M273.2,672.9c6.1-3.7,10.6-9.5,12.6-16.3c0.2-0.7,1.2-0.3,1,0.3c-2.1,7.1-6.8,13.2-13.2,16.9
	C273.1,674.3,272.6,673.3,273.2,672.9L273.2,672.9z"/>
<path class="st2" d="M279.3,613.1c2.5,1.2,5.5,1.1,7.9-0.4c0.6-0.4,1.1,0.6,0.5,1c-2.6,1.6-5.9,1.8-8.7,0.5
	c-0.3-0.1-0.4-0.4-0.3-0.7C278.7,613.2,279,613,279.3,613.1L279.3,613.1z"/>
<path class="st1" d="M364.1,638.3c-0.4,0.2-0.7,0.5-1.1,0.7c-5,3.3-9.6,6.9-14,10.9c-0.3,0.3-0.7,0.6-1,0.9
	c-10.4,9.8-18.9,21.4-25.1,34.3c-2.4,5.1-4.5,10.4-6.1,15.9c-2.3,7.5-4.1,15.9-8.6,22c-0.5,0.6-1,1.3-1.5,1.9h-40.5
	c-0.1,0-0.2-0.1-0.3-0.1l-1.6,0.1c0.1-0.3,0.1-0.6,0.2-0.9c0-0.2,0.1-0.3,0.1-0.5c0-0.1,0.1-0.2,0.1-0.3c0,0,0-0.1,0-0.1
	c0-0.1,0-0.2,0.1-0.3c0.4-1.7,0.8-3.3,1.3-5c0,0,0,0,0,0c3.2-12.6,7.8-24.9,13.9-36.4c0.2-0.3,0.4-0.7,0.6-1c2.8-5.1,6-10,9.6-14.6
	c2-2.5,4.1-4.9,6.3-7.2c5.7-5.9,12.4-10.9,19.7-14.7c14.5-7.7,31.4-10.6,46.9-5.9C363.4,638.1,363.8,638.2,364.1,638.3z"/>
<path class="st2" d="M364.1,638.8c-20.2,4-38.6,14.3-52.6,29.4c-3.1,3.2-5.6,6.8-7.6,10.8c-1.8,3.9-2.4,8.3-2,12.6
	c0.4,4,1.2,8.1,0.6,12.1c-0.7,4.2-3.1,7.8-6.7,10.1c-4.3,2.9-9.4,4.1-14.5,5c-5.6,1.1-11.4,2.1-16.1,5.6c-0.6,0.4-1.2-0.5-0.6-0.9
	c8.1-6.1,19-4.8,27.9-9.1c4.1-2,7.7-5.3,8.7-9.9c0.9-4.1,0-8.2-0.4-12.3c-0.5-4.2,0-8.4,1.4-12.4c1.7-4.1,4.1-7.8,7.1-11.1
	c6.6-7.5,14.3-13.8,22.9-18.9c9.8-5.8,20.5-9.9,31.6-12.1C364.7,637.6,364.7,638.7,364.1,638.8L364.1,638.8z"/>
<path class="st2" d="M315.7,663.1c-4.6-5.6-4.4-13.6,0.3-19c0.5-0.5,1.3,0.2,0.8,0.7c-4.4,5-4.6,12.5-0.3,17.7
	C317,663,316.1,663.6,315.7,663.1L315.7,663.1z"/>
<path class="st2" d="M301.5,689.6c7.1,0.8,14.2-1.2,19.9-5.4c0.6-0.4,1.2,0.5,0.6,0.9c-6,4.4-13.4,6.4-20.7,5.6
	C300.6,690.6,300.8,689.5,301.5,689.6L301.5,689.6z"/>
<path class="st2" d="M342.3,645.5c1.3,2.5,3.8,4.1,6.5,4.4c0.7,0.1,0.5,1.1-0.2,1.1c-3.1-0.3-5.8-2.2-7.2-4.9
	c-0.2-0.3-0.1-0.6,0.1-0.8C341.8,645.2,342.1,645.3,342.3,645.5z"/>
<path class="st10" d="M685.5,726.5H176.2c-0.7,0-1.2-0.5-1.2-1.2c0-0.7,0.5-1.2,1.2-1.2c0,0,0,0,0,0h509.3c0.7,0,1.2,0.5,1.2,1.2
	S686.2,726.5,685.5,726.5C685.5,726.5,685.5,726.5,685.5,726.5z"/>
</svg>
