<?xml version="1.0" encoding="utf-8"?>
<!-- Generator: Adobe Illustrator 26.0.1, SVG Export Plug-In . SVG Version: 6.00 Build 0)  -->
<svg version="1.1" id="Calque_1" xmlns="http://www.w3.org/2000/svg" xmlns:xlink="http://www.w3.org/1999/xlink" x="0px" y="0px"
	 viewBox="0 0 524.7 455.6" style="enable-background:new 0 0 524.7 455.6;" xml:space="preserve">
<style type="text/css">
	.st0{fill:#FFB6B6;}
	.st1{fill:#EEAB26;}
	.st2{fill:#2F2E41;}
	.st3{fill:#EEAB27;}
	.st4{fill:#EEAB23;}
	.st5{fill:#E6E6E6;}
	.st6{fill:#F2F2F2;}
	.st7{fill:#EEAB25;}
	.st8{fill:#EEAB24;}
</style>
<g>
	<path id="uuid-c35e0a51-e7e9-4b68-ade6-2a226cad2c46-184" class="st0" d="M238.8,47.9c-4.3-4.4-5.4-10.2-2.6-12.9s8.6-1.3,12.8,3.1
		c1.7,1.7,3,3.9,3.8,6.2l17.9,19l-7.5,7l-18.2-18.5C242.6,51,240.5,49.7,238.8,47.9z"/>
	<polygon class="st1" points="258.2,50.4 254.8,45.5 244.4,53.4 250,56.2 	"/>
	<polygon class="st2" points="357.3,113.6 352.1,85.9 300.3,81 257.3,47.8 246.9,55.2 282.6,105.5 	"/>
</g>
<path class="st0" d="M323.3,68.7c-3.4-1.5-8,1.6-10.3,6.9c-1,2.1-1.4,4.4-1.3,6.7l-2.7,6.4l0,0l-12.5,21.7l-18-26.2
	c-2.7-4-7.8-5.8-12.4-4.4h0c-7.6,2.3-10.4,11.6-5.4,17.8l29.7,36c3.1,3.8,9.1,3,11.2-1.4L318.9,91l2.1-4.7c1.8-1.5,3.2-3.3,4.1-5.5
	C327.5,75.6,326.6,70.1,323.3,68.7L323.3,68.7z"/>
<path class="st3" d="M524.7,434.5c0,0.7-0.5,1.2-1.2,1.2H1.2c-0.7,0-1.2-0.5-1.2-1.2s0.5-1.2,1.2-1.2h522.3
	C524.1,433.3,524.7,433.8,524.7,434.5z"/>
<polygon class="st0" points="324.5,70.7 325,49.2 337.5,42.3 347.8,58.3 "/>
<polygon class="st4" points="348.8,56.1 320.8,68.7 319.5,85.4 353.3,67.1 "/>
<path class="st2" d="M363.3,130.2L363.3,130.2c-2,12.2-4.8,20.9-4.8,20.9l0.8,19.4l1.8,40.5l-11,1l-17.4,1.5l-1.7,0.1l-11.5,1
	l-17.7,1.5l-5.2-75.5c0,0,6.5-16.6,12.6-32.3c4.2-10.6,8.2-20.9,10-25.5c0.2-0.5,0.3-0.8,0.5-1.2c2.1-5.3,12.6-11.9,20.8-16.3
	c5.5-3,10-5.1,10-5.1l4.4,8.2l0.3,0.6c6.7,8.1,9.4,19.4,10,31c0,0.8,0.1,1.7,0.1,2.5C365.7,112.3,364.6,122,363.3,130.2L363.3,130.2
	z"/>
<g>
	<g>
		<polygon class="st0" points="333.4,427.6 321.7,427.5 316.6,382.6 333.8,382.7 		"/>
		<path class="st2" d="M293.5,427L293.5,427c-0.4,0.6-0.6,2.6-0.6,3.3l0,0c0,2.2,1.7,4,3.9,4l36,0.3c1.5,0,2.7-1.2,2.7-2.7l0-1.5
			c0,0,1.8-4.5-1.8-10.1c0,0-4.6,4.3-11.4-2.6l-2-3.7l-14.7,10.5l-8.1,0.9C296,425.7,294.4,425.5,293.5,427L293.5,427L293.5,427z"/>
	</g>
	<g>
		<polygon class="st0" points="392.9,413.3 382.4,418.2 358.5,379.7 374.1,372.5 		"/>
		<path class="st2" d="M356.6,429.8L356.6,429.8c-0.1,0.7,0.6,2.6,0.9,3.2l0,0c0.9,2,3.3,2.8,5.2,1.9l32.7-15.1
			c1.4-0.6,1.9-2.2,1.3-3.6l-0.6-1.4c0,0-0.3-4.8-5.9-8.4c0,0-2.3,5.9-11.4,2.5l-3.4-2.5l-8.8,15.8l-6.9,4.3
			C358.3,427.6,356.8,428,356.6,429.8L356.6,429.8L356.6,429.8z"/>
	</g>
	<path class="st2" d="M304.9,207.6l1.2,101l9.9,105.5h18.4l15-138c0,0,21.6-33.4,9-63.1v-14.8L304.9,207.6L304.9,207.6z"/>
	<polygon class="st2" points="335.9,303.2 387.3,394.3 372.9,408.7 332.3,350.1 	"/>
</g>
<path class="st5" d="M281.4,75.9l-20.8-7.2c0,0-17.6,20.8-8.5,46.2l2.6,30.6c0,0-35.8,29.9-38.4,68.4s-87.2,140-87.2,140
	s-31.3,2-33.2,13.7s11.1,26.7,8.5,39.7s18.6,50.8,63.7,48.2s184.4-28,186.3-57.3c2-29.3-69.7-247.4-69.7-247.4l10.4-29.3
	c0,0,7.2-11.7-3.3-24.1S281.4,75.9,281.4,75.9z"/>
<polygon class="st0" points="259.6,70.1 260.1,68.7 263.8,56.4 282.7,62.9 281.4,75.9 "/>
<circle class="st0" cx="330.3" cy="33.8" r="22.9"/>
<path class="st2" d="M327,43.6l-9.6-9.4L320,27c0,0-19,7.1-14.3-7.8c4.7-14.9,28.8-13.4,33.8-9.8s21.2,12,17,23.8s-12,22.4-12,22.4
	l-6.2-3.6c0,0-0.2-13.6-3.3-12.9S327,43.6,327,43.6z"/>
<g>
	<circle class="st0" cx="281.9" cy="44.5" r="21.1"/>
	<path class="st2" d="M280.2,16.1c0.6,0.4,1.4-0.2,1.6-0.9s0-1.4-0.3-2.1l-1.1-3.4c-0.8-2.4-1.7-4.9-3.4-6.7
		c-2.6-2.8-6.8-3.5-10.6-2.9c-4.9,0.7-9.6,3.3-11.9,7.6s-1.3,10.4,2.8,13.1c-5.8,6.7-7.8,14.1-7.5,22.9s10,17,16.2,23.2
		c1.4-0.9,2.7-4.8,1.9-6.3c-0.8-1.4,0.3-3.1-0.6-4.5s-1.8,0.8-0.8-0.5c0.6-0.8-1.8-2.8-0.9-3.3c4.4-2.4,5.8-7.9,8.6-12.1
		c3.3-5,9-8.5,15-9c3.3-0.3,6.8,0.3,9.5,2.2s4.5,5.4,3.8,8.6c1.6-1.7,2.4-4.1,2.1-6.4c-0.3-2.3-1.7-4.4-3.7-5.6
		c1.2-4,0.2-8.7-2.7-11.8s-14.3-2.6-18.5-1.8"/>
	<path class="st2" d="M279.6,31.5c-5.5,0.6-9.4,5.3-12.8,9.7c-1.9,2.5-3.9,5.3-3.9,8.5c0,3.2,2.2,6,3.2,9c1.7,5,0,10.9-3.9,14.3
		c3.9,0.7,8.2-2.2,8.9-6.2c0.8-4.6-2.7-9-2.3-13.7c0.4-4.1,3.6-7.3,6.3-10.3s5.3-7.1,4.1-11"/>
</g>
<path class="st6" d="M486.5,326.8c-3.2,0.3-6.6,0.9-10.3,1.6c-15.6,3.2-15.9,13.7-15.7,16.1l-0.1-0.1c-1.6,2.5-2.5,5-3.1,7.4
	l-0.7-32.4c0.5-1,0.9-2,1.2-3.2c1.2,3.6,3.1,7,4.7,6.7c2.1-0.3,3.1-6.6,2.7-11.1c2.7,3.5,7.3,7.2,9,6.1c1.4-0.9,0.6-4.7-0.9-8.2
	c3.1,1.9,6.6,3.1,7.7,1.9c1.5-1.6-2.1-7.2-5.3-10.4c4.4,0.4,9.9-0.3,10.3-2.3c0.3-1.6-3-3.7-6.5-5c3.5-0.9,6.9-2.6,6.7-4.2
	c-0.1-1.9-5.1-3.2-9.3-3.4c3.2-2.5,6.1-6,5.2-7.5c-0.8-1.4-4.7-0.9-8.2,0.4c2.1-3,3.6-6.4,2.5-7.5c-1.4-1.4-6.4,1-9.8,3.8
	c0.7-4.3,0.3-9.7-1.6-10.2c-1.6-0.4-3.9,2.7-5.5,6.2c-0.7-3.6-2.1-7-3.7-7c-2.3,0-4.2,6.9-4.2,11.5c0,0.3,0,0.5,0,0.7
	c-0.2-0.3-0.5-0.5-0.8-0.8c-3.2-3.1-9.5-6.6-11.1-5c-1.1,1.2,0.4,4.5,2.5,7.5c-3.5-1.3-7.4-1.8-8.2-0.4c-1.1,1.9,3.6,6.8,7.5,9.1
	c-0.2,0-0.5-0.1-0.7-0.1c-4.5-0.3-11.6,1.1-11.7,3.4c-0.1,1.6,3.2,3.2,6.7,4.2c-3.5,1.3-6.8,3.4-6.5,5c0.4,2,5.9,2.7,10.3,2.3
	c-3.3,3.1-6.8,8.7-5.3,10.4c1.1,1.2,4.6,0,7.7-1.9c-1.5,3.5-2.3,7.3-0.9,8.2c1.8,1.2,6.8-3,9.5-6.7c-0.3,4.5,0.8,10.6,2.9,10.9
	c0.9,0.1,1.8-0.8,2.7-2.3l-2.4,34.8c-0.6,4.1,3,6.7,3.4,8.4l0.5,23.6c-0.6-1.7-1.4-3.4-2.4-5.1l-0.1,0.1c0.1-2.4-0.2-13-15.7-16.1
	c-3.7-0.7-7.1-1.3-10.3-1.6c-3.7-0.4-5.2,4.7-1.8,6.4c4.9,2.4,9.5,5.4,11.9,9c6.1,9.1,14.6,3.8,15.8,3c1.3,2.2,2.2,4.5,2.8,6.6
	l0.3,12.5c-0.1,0.3-0.1,0.5-0.1,0.5l0.1,0l0.7,30.3l6.2,0l-2.2-30.9c0.4-1.7,1.5-7.4,0-13.3l-2.2-24.3l0,0c0,0,0.1,0.6,0,0l-2.9-9.6
	c0.4-3,1.4-6.3,3.4-9.6c1.2,0.8,9.7,6.1,15.8-3c2.4-3.6,7-6.6,11.9-9C491.7,331.5,490.2,326.4,486.5,326.8L486.5,326.8z
	 M458.3,398.4l-0.1-5.3C458.4,395.1,458.4,396.9,458.3,398.4z"/>
<path class="st6" d="M77.5,326.8c-3.2,0.3-6.6,0.9-10.3,1.6c-15.6,3.2-15.9,13.7-15.7,16.1l-0.1-0.1c-1.6,2.5-2.5,5-3.1,7.4
	l-0.7-32.4c0.5-1,0.9-2,1.2-3.2c1.2,3.6,3.1,7,4.7,6.7c2.1-0.3,3.1-6.6,2.7-11.1c2.7,3.5,7.3,7.2,9,6.1c1.4-0.9,0.6-4.7-0.9-8.2
	c3.1,1.9,6.6,3.1,7.7,1.9c1.5-1.6-2.1-7.2-5.3-10.4c4.4,0.4,9.9-0.3,10.3-2.3c0.3-1.6-3-3.7-6.5-5c3.5-0.9,6.9-2.6,6.7-4.2
	c-0.1-1.9-5.1-3.2-9.3-3.4c3.2-2.5,6.1-6,5.2-7.5c-0.8-1.4-4.7-0.9-8.2,0.4c2.1-3,3.6-6.4,2.5-7.5c-1.4-1.4-6.4,1-9.8,3.8
	c0.7-4.3,0.3-9.7-1.6-10.2c-1.6-0.4-3.9,2.7-5.5,6.2c-0.7-3.6-2.1-7-3.7-7c-2.3,0-4.2,6.9-4.2,11.5c0,0.3,0,0.5,0,0.7
	c-0.2-0.3-0.5-0.5-0.8-0.8c-3.2-3.1-9.5-6.6-11.1-5c-1.1,1.2,0.4,4.5,2.5,7.5c-3.5-1.3-7.4-1.8-8.2-0.4c-1.1,1.9,3.6,6.8,7.5,9.1
	c-0.2,0-0.5-0.1-0.7-0.1c-4.5-0.3-11.6,1.1-11.7,3.4c-0.1,1.6,3.2,3.2,6.7,4.2c-3.5,1.3-6.8,3.4-6.5,5c0.4,2,5.9,2.7,10.3,2.3
	c-3.3,3.1-6.8,8.7-5.3,10.4c1.1,1.2,4.6,0,7.7-1.9c-1.5,3.5-2.3,7.3-0.9,8.2c1.8,1.2,6.8-3,9.5-6.7c-0.3,4.5,0.8,10.6,2.9,10.9
	c0.9,0.1,1.8-0.8,2.7-2.3l-2.4,34.8c-0.6,4.1,3,6.7,3.4,8.4l0.5,23.6c-0.6-1.7-1.4-3.4-2.4-5.1l-0.1,0.1c0.1-2.4-0.2-13-15.7-16.1
	c-3.7-0.7-7.1-1.3-10.3-1.6c-3.7-0.4-5.2,4.7-1.8,6.4c4.9,2.4,9.5,5.4,11.9,9c6.1,9.1,14.6,3.8,15.8,3c1.3,2.2,2.2,4.5,2.8,6.6
	l0.3,12.5c-0.1,0.3-0.1,0.5-0.1,0.5l0.1,0l0.7,30.3l6.2,0l-2.2-30.9c0.4-1.7,1.5-7.4,0-13.3l-2.2-24.3l0,0c0,0,0.1,0.6,0,0l-2.9-9.6
	c0.4-3,1.4-6.3,3.4-9.6c1.2,0.8,9.7,6.1,15.8-3c2.4-3.6,7-6.6,11.9-9C82.7,331.5,81.2,326.4,77.5,326.8L77.5,326.8z M49.3,398.4
	l-0.1-5.3C49.4,395.1,49.4,396.9,49.3,398.4z"/>
<path class="st7" d="M254.6,147l30.6-0.1c1.9,0,1.9-3,0-3l-30.6,0.1C252.7,144,252.7,147,254.6,147L254.6,147L254.6,147z"/>
<path class="st0" d="M338.1,207.6c-1.7-2.1-3.9-3.8-6.5-5l-1.7-2l0.1-0.1L297.6,147L280,94.7c-2-6.1-8.7-9.2-14.7-7
	c-6,2.2-8.9,9-6.5,14.9l20.6,49.8l41.8,56.7l1,1.3c0.6,2.7,1.9,5.2,3.7,7.3c4.4,5.3,10.7,7.3,14.1,4.5
	C343.3,219.5,342.5,212.9,338.1,207.6L338.1,207.6z"/>
<g>
	<g>
		<path id="uuid-5494c572-d1ef-490f-a18f-c726509d3762-185" class="st0" d="M350,218.9c-1.4,7.7-6.5,13.2-11.4,12.4
			c-4.9-0.9-7.8-7.8-6.4-15.6c0.5-3.1,1.8-6,3.6-8.5l6.3-32.6l12.9,2.5l-5.5,32.5C350.5,212.7,350.6,215.9,350,218.9L350,218.9z"/>
		<polygon class="st8" points="338.3,197.1 335.8,204.3 351.6,209.1 350.3,201.2 		"/>
	</g>
	<path class="st2" d="M365.4,102.6l-0.8,13.3l-1.4,14.3l0,0l-3.9,40.2l-3,30.5l-0.6,5.7l-4.9-1.1l-0.7-0.2l-5-1.1l-8.5-1.9l-0.4-0.1
		l-1.7-0.4l4.4-71.4l0.7-30.7l0.6-26.9l0.2-7.5c5.5-3,10-5.1,10-5.1l4.4,8.2l0.3,0.6c6.7,8.1,9.4,19.4,10,31
		C365.4,101,365.4,101.8,365.4,102.6L365.4,102.6z"/>
</g>
</svg>
